<?xml version="1.0" encoding="utf-8"?>
<!-- Generator: Adobe Illustrator 22.1.0, SVG Export Plug-In . SVG Version: 6.00 Build 0)  -->
<svg version="1.1" id="Calque_1" xmlns="http://www.w3.org/2000/svg" xmlns:xlink="http://www.w3.org/1999/xlink" x="0px" y="0px"
	 viewBox="0 0 644.9 396.9" style="enable-background:new 0 0 644.9 396.9;" xml:space="preserve">
<style type="text/css">
	.st0{fill:#EB5E9D;}
	.st1{fill:#E6332A;}
	.st2{fill:#917A54;}
	.st3{fill:#E94E1B;}
	.st4{fill:#FCEA10;}
	.st5{fill:#1D71B8;}
	.st6{fill:#DEDC00;}
	.st7{fill:#F08AB7;}
	.st8{fill:#F4BF23;}
	.st9{fill:#951B81;}
	.st10{fill:#936037;}
	.st11{fill:#A3195B;}
	.st12{fill:#2E4B2E;}
	.st13{fill:#95C11F;}
	.st14{fill:#3AAA35;}
	.st15{fill:#E30613;}
	.st16{fill:#312783;}
	.st17{fill:#878787;}
	.st18{fill:#2D4C9C;}
	.st19{fill:#0095DB;}
	.st20{fill:#F9B233;}
	.st21{fill:#00A19A;}
	.st22{fill:#E83278;}
	.st23{fill:#006633;}
	.st24{fill:#002539;}
</style>
<path class="st0" d="M96.6,243.3c0.4,0.7,0.9,1.3,1.6,1.6c0.7,0.4,1.4,0.4,2.1,0.2c0.7-0.2,1.4-0.8,2-1.8c0.2,0.7,0.4,1.2,0.8,1.5
	c0.4,0.3,0.8,0.5,1.2,0.5c0.5,0,1-0.1,1.5-0.3c0.5-0.2,1-0.4,1.5-0.7c0.5-0.3,0.9-0.6,1.3-1c0.4-0.3,0.7-0.7,1-0.9
	c0.5,0.5,0.9,1.1,1,1.9c0.2,0.8,0.2,1.7,0.1,2.6c-0.1,1-0.3,1.9-0.5,2.9c-0.3,1-0.6,1.9-1,2.8c-0.4,0.9-0.8,1.6-1.2,2.3
	c-0.4,0.7-0.8,1.1-1.2,1.4c-0.3,0.2-0.4,0.4-0.4,0.7c0,0.3,0.1,0.5,0.3,0.7c0.2,0.2,0.4,0.3,0.7,0.4c0.3,0.1,0.6,0,0.8-0.3
	c0.5-0.2,1-0.8,1.5-1.7c0.5-0.9,1-2,1.5-3.2c0.5-1.2,0.8-2.6,1.2-4c0.3-1.4,0.5-2.8,0.5-4.1c0-1.3-0.2-2.5-0.6-3.5
	c-0.4-1-1.1-1.7-2-2c-0.2-0.1-0.4,0-0.8,0.3c-0.4,0.3-0.8,0.6-1.3,1c-0.5,0.4-1,0.8-1.5,1.2c-0.5,0.4-1,0.6-1.4,0.7
	c-0.4,0.1-0.7,0-1-0.3c-0.2-0.3-0.3-0.9-0.3-1.9c-0.1-0.2-0.2-0.4-0.4-0.5c-0.1-0.2-0.3-0.3-0.5-0.4c-0.2-0.1-0.3-0.1-0.5,0
	c-0.2,0.1-0.3,0.2-0.4,0.5c-0.4,0.6-0.8,1.1-1.2,1.6c-0.5,0.5-0.9,0.8-1.3,1c-0.4,0.2-0.7,0.2-1-0.1c-0.2-0.2-0.3-0.7-0.2-1.5
	c0-0.4-0.2-0.8-0.5-1.1c-0.3-0.3-0.6-0.5-1-0.5c-0.3-0.1-0.6,0-0.8,0.2c-0.2,0.2-0.2,0.6,0,1.2C96.1,241.7,96.2,242.6,96.6,243.3"/>
<path class="st1" d="M49.8,290.9c-1.1,0.1-2.2,0.1-3.1,0.1c0-0.3-0.1-0.6-0.1-0.9c0-0.3,0-0.6,0-0.8c0-0.4-0.1-0.7-0.3-0.8
	c-0.2-0.1-0.4-0.1-0.7,0c-0.3,0.1-0.5,0.3-0.8,0.5c-0.2,0.2-0.4,0.4-0.5,0.6c-0.1,0.2-0.1,0.5-0.1,0.8c0,0.3,0,0.6-0.1,0.8
	c-0.2,0.1-0.5,0.1-0.8,0.2c-0.4,0-0.8,0.1-1.3,0.1c-0.5,0-0.9,0-1.4,0.1c-0.5,0-0.9,0-1.2,0.1h-0.1c-0.4,0.1-0.8,0.2-0.9,0.4
	c-0.2,0.2-0.3,0.4-0.2,0.7c0,0.3,0.2,0.5,0.4,0.7c0.2,0.2,0.5,0.4,0.8,0.4c0.9,0.1,1.8,0.1,2.5,0c0.8,0,1.6-0.1,2.5-0.1v2.7
	c-0.7,0.1-1.4,0.2-2.2,0.2c-0.8,0-1.6,0.1-2.3,0.3c-0.3,0.1-0.5,0.2-0.6,0.4c-0.2,0.2-0.2,0.4-0.3,0.6c0,0.2,0,0.4,0.2,0.6
	c0.1,0.2,0.4,0.3,0.7,0.3c0.7,0,1.5,0,2.2-0.1c0.8-0.1,1.5-0.1,2.2-0.1c0,0.7,0,1.4,0,2c0,0.7,0,1.3,0,2c-1-0.1-2-0.1-2.9-0.1
	c-0.9,0-1.9,0.1-2.9,0.3c-0.1,0.1-0.2,0.2-0.3,0.3c-0.1,0.1-0.2,0.2-0.2,0.4c0,0.1,0,0.3,0.1,0.4c0.1,0.1,0.3,0.3,0.6,0.4
	c0.6,0.2,1,0.2,1.2,0.3c0.2,0,0.5,0.1,0.7,0.1c0.3,0,0.6,0,1.1,0c0.5,0,1.2,0,2.3,0c0.1,0.6,0.2,1.2,0.2,1.9c0,0.6,0,1.2,0,1.9
	c0,0.6,0,1.2,0,1.8c0,0.6,0.1,1.2,0.2,1.7c0.1,0.4,0.2,0.6,0.4,0.7c0.2,0.1,0.4,0.1,0.5,0.1c0.2-0.1,0.4-0.2,0.6-0.3
	c0.2-0.1,0.4-0.3,0.5-0.4v-2.9v-2c0-0.5,0-1,0-1.3c0-0.4,0-0.7,0-1c1.2,0,2.3,0,3.2,0c1,0,2.2,0,3.5-0.1c0.3,0,0.6-0.1,0.7-0.3
	c0.1-0.2,0.2-0.4,0.1-0.6c0-0.2-0.1-0.4-0.3-0.6c-0.1-0.2-0.3-0.3-0.5-0.4c-1.1-0.1-2.2-0.1-3.5-0.1c-1.3,0-2.5,0-3.5-0.1
	c0-0.7,0-1.3,0-2c0-0.7,0-1.3,0-2c0.1,0,0.5,0,1.1,0c0.6,0,1.3,0,2-0.1c0.7,0,1.4-0.1,2.1-0.1c0.6,0,1.1-0.1,1.3-0.2
	c0.3-0.2,0.5-0.4,0.5-0.8c0-0.4-0.2-0.7-0.5-0.8c-0.9-0.1-2-0.1-3.1-0.1c-1.1,0-2.1,0-3.1,0c0-0.4,0-0.9,0-1.4c0-0.5,0.1-1,0.2-1.4
	c0.9-0.2,1.8-0.3,2.9-0.3c1.1,0,2.1-0.2,3-0.4c0.4-0.1,0.7-0.2,0.8-0.3c0.2-0.2,0.2-0.3,0.2-0.5c0-0.2-0.1-0.4-0.2-0.6
	c-0.1-0.2-0.3-0.4-0.5-0.5C52,290.7,50.9,290.8,49.8,290.9"/>
<path class="st2" d="M56,153.3c-0.5-0.8-1.2-1.7-2-2.4c-0.8-0.8-1.8-1.5-2.9-2.2c-1.1-0.7-2.3-1.4-3.5-2c1.1-0.5,2.1-1.1,2.8-1.8
	c0.8-0.7,1.1-1.5,1.1-2.5c0-0.5-0.1-0.9-0.4-1.3c-0.2-0.4-0.6-0.8-1-1.2c-0.4-0.3-1-0.6-1.6-0.8c-0.6-0.2-1.4-0.3-2.1-0.3
	c-0.9,0-1.7,0.1-2.5,0.3c-0.8,0.2-1.4,0.5-2,0.9c-0.6,0.4-1,0.8-1.3,1.3c-0.3,0.5-0.5,1.1-0.5,1.7c0,0.5,0.1,0.9,0.2,1.3
	c0.1,0.4,0.3,0.8,0.5,1.1c0.2,0.4,0.6,0.7,1,1.1c0.4,0.4,1,0.8,1.7,1.3c-1,0.4-2,1-3,1.6c-1,0.6-1.9,1.3-2.7,2
	c-0.8,0.8-1.5,1.6-2,2.5c-0.5,0.9-0.8,1.8-0.8,2.8c0,0.7,0.1,1.4,0.4,1.9c0.2,0.5,0.6,0.9,1,1.3c0.4,0.3,0.9,0.6,1.4,0.7
	c0.6,0.2,1.1,0.2,1.7,0.2c1.4,0,2.6-0.4,3.5-1.1c0.9-0.8,1.4-1.8,1.4-3c0-1.4-0.5-2.4-1.5-3.2c-1-0.8-2.3-1.1-4.1-0.9
	c0.4-0.5,0.8-0.9,1.2-1.3c0.4-0.4,0.9-0.8,1.4-1.1c0.5-0.3,1-0.7,1.5-0.9c0.5-0.3,1-0.5,1.4-0.7c1.1,0.5,2.1,1.1,3.1,1.8
	c1,0.6,2,1.3,3,2c-0.6,0.1-1.1,0.4-1.6,0.6c-0.5,0.3-1,0.6-1.3,1c-0.4,0.4-0.7,0.8-0.9,1.3c-0.2,0.5-0.3,1-0.3,1.5
	c0,0.7,0.1,1.4,0.4,1.9c0.3,0.5,0.6,1,1.1,1.3c0.5,0.3,1,0.6,1.6,0.8c0.6,0.2,1.3,0.3,2,0.3c0.6,0,1.3-0.1,1.9-0.3
	c0.6-0.2,1.2-0.5,1.7-0.9c0.5-0.4,0.9-0.9,1.2-1.5c0.3-0.6,0.5-1.3,0.5-2.2C56.8,155,56.5,154.2,56,153.3 M40,153.7
	c0.4,0.2,0.7,0.5,1,0.8c0.3,0.3,0.4,0.7,0.5,1.1c0.1,0.4,0.2,0.9,0.2,1.3c0,0.8-0.1,1.5-0.4,1.9c-0.3,0.5-0.7,0.7-1.3,0.7
	c-0.2,0-0.5-0.1-0.7-0.2c-0.2-0.2-0.5-0.4-0.7-0.7c-0.2-0.3-0.4-0.6-0.5-1.1c-0.1-0.4-0.2-0.9-0.2-1.4c0-0.5,0.1-1,0.2-1.5
	c0.1-0.5,0.3-0.9,0.6-1.2C39.1,153.4,39.6,153.5,40,153.7 M46.6,146.1c-0.9-0.5-1.6-1.2-2.3-1.9c-0.6-0.7-1-1.4-1-2.1
	c0-0.2,0.1-0.5,0.2-0.8c0.1-0.3,0.3-0.5,0.5-0.7c0.2-0.2,0.5-0.4,0.9-0.5c0.3-0.1,0.8-0.2,1.2-0.2c0.7,0,1.2,0.3,1.7,0.8
	c0.4,0.5,0.6,1.1,0.6,1.7c0,1-0.1,1.8-0.4,2.3C47.8,145.2,47.3,145.7,46.6,146.1 M53.3,157.7c-0.1,0.3-0.2,0.6-0.3,0.9
	c-0.1,0.3-0.3,0.5-0.6,0.7c-0.2,0.2-0.6,0.3-0.9,0.3c-0.3,0-0.6-0.1-0.9-0.3c-0.3-0.2-0.5-0.4-0.7-0.8c-0.2-0.3-0.4-0.7-0.5-1.1
	c-0.1-0.4-0.2-0.8-0.2-1.2c0-1,0.2-1.8,0.6-2.3c0.4-0.5,0.9-0.9,1.5-1.2c0.5,0.4,1,1,1.4,1.7c0.4,0.7,0.7,1.4,0.7,2.3
	C53.4,157.1,53.4,157.4,53.3,157.7"/>
<path class="st3" d="M230.2,150.8c0,2.7-0.4,4.8-1.3,6.3c-0.9,1.6-2.1,2.3-3.6,2.3c-0.9,0-1.5-0.3-1.9-0.8c-0.4-0.5-0.6-1.4-0.6-2.7
	v-6.2c0-1.5-0.4-2.8-1.3-3.7c-0.9-0.9-2-1.4-3.4-1.4c-2.3,0-4.3,1.2-5.8,3.5v-10.7h-3v24.1h3v-10.8c1.6-2.4,3.4-3.6,5.2-3.6
	c0.8,0,1.4,0.3,1.8,0.8c0.4,0.5,0.5,1.4,0.5,2.6v5.5c0,1.4,0.1,2.4,0.3,3c0.2,0.6,0.5,1.2,1.1,1.7c0.8,0.8,1.9,1.2,3.2,1.2
	c2.6,0,4.7-1.1,6.3-3.4c1.6-2.3,2.4-5.3,2.4-9.1c0-1.7-0.2-3.2-0.5-4.5h-3.3C229.8,146.5,230.2,148.4,230.2,150.8"/>
<path class="st4" d="M169.6,302.6c-1.3-2.1-3.2-3.9-5.6-5.3l6.8-10.3h-18.7l6.6,10.3c-2.5,1.5-4.3,3.3-5.7,5.3c-1.3,2.1-2,4.3-2,6.8
	h3.2c0-2.2,0.5-4.1,1.5-5.8c1-1.7,2.4-3.1,4.1-4v9.9h3v-9.9c1.7,1,3.1,2.3,4.1,4c1,1.7,1.5,3.7,1.5,5.8h3.1
	C171.5,306.9,170.9,304.7,169.6,302.6 M161.4,297l-4.2-7.4h8.5C164.9,290.9,163.5,293.4,161.4,297"/>
<path class="st5" d="M227.4,41.8h-2.8L220.6,52h-6.4V41.8h-2.7v19.9h2.7v-7.4h5.5l-2.8,7.4h2.8l2.7-7.4h2.3v7.4h2.6v-7.4h2.4
	l2.9,7.4h3L227.4,41.8z M223.2,52c1.6-4.2,2.5-6.9,2.8-8.1c0.3,1.3,1.3,4,2.8,8.1H223.2z"/>
<path class="st6" d="M113.1,195.3c-1.2-2.9-2.8-5.3-4.8-7.1c-2.2-2-4.5-3.1-6.8-3.1c-1.8,0-3.6,0.5-5.2,1.6
	c-1.4,0.9-2.7,2.1-3.8,3.5l1.3,2.3c1.5-2,3-3.5,4.6-4.3v8h2.7v-8.8c2.8,0.1,5.5,2.3,8.1,6.6c-3.5,0.5-5.3,2.8-5.3,6.7v7.3h2.8v-7.2
	c0-1.5,0.3-2.5,0.8-3.1c0.6-0.7,1.6-1.1,3-1.1c0.9,2.8,1.4,5.3,1.4,7.4c0,5.1-2.2,7.7-6.7,7.7c-1.2,0-2.5-0.1-3.9-0.2l1.3,2.7
	c4.3,0,7.3-0.7,9.1-2.1c2.1-1.6,3.2-4.6,3.2-8.9C114.8,200.7,114.2,198,113.1,195.3"/>
<polygon class="st7" points="95.7,90.3 95.7,93.2 103,101 95.7,109.6 95.7,112.7 111.6,112.7 111.6,110 98.9,110 106.5,101 
	98.9,92.9 110.9,92.9 110.9,90.3 "/>
<path class="st8" d="M281.6,91.8c0,6.8-1.8,11.6-5.3,14.2l-4.1-14.2h-2.8l4.6,15.7c-1.6,0.7-3.3,1-5.1,1l0.3,2.9
	c4.4,0,8-1.7,10.8-5.1c2.8-3.4,4.2-8.2,4.2-14.5H281.6z"/>
<path class="st9" d="M167.7,248.2c0.5-0.6,0.9-1.2,1.1-1.8c0.3-0.7,0.5-1.4,0.5-2.1l0.4-3.6h-2.9l-0.2,2.8c-0.1,0.9-0.2,1.7-0.4,2.3
	c-0.2,0.6-0.5,1.1-0.9,1.6c-0.4,0.5-0.9,0.9-1.5,1.3c-1.7-0.9-2.9-1.6-3.4-2.1c-0.6-0.5-0.9-1.1-1.2-1.8c-0.2-0.6-0.3-1.6-0.3-2.9
	v-1.2h-2.9v1.2c0,1.5,0.2,2.8,0.6,3.8c0.4,1,1,1.9,1.8,2.7c0.8,0.8,1.7,1.4,2.7,1.9l4.4,2.2c1.2,0.6,1.9,1.1,1.9,1.5
	c0,0.4-0.3,0.7-1,0.7h-10.4v2.9h10.4c2.5,0,3.7-1.2,3.7-3.5c0-0.7-0.2-1.4-0.7-2c-0.4-0.6-1.6-1.4-3.4-2.3
	C166.6,249.2,167.2,248.7,167.7,248.2"/>
<path class="st10" d="M224.6,193.7c-1.2-1-2.8-1.7-4.8-2.1l0.3-5.2h-3.7c-1,0-1.8,0.2-2.6,0.7c-0.9,0.6-1.3,1.3-1.4,2.2
	c0,0.9,0.5,1.7,1.7,2.3c0.8,0.5,1.8,0.8,3,1l-0.6,10.8c-2.1-0.1-3.1-1.5-3.1-4.3h-2.1c0.3,3.7,2,5.6,5.1,5.9l-0.4,7.8h2.7l0.4-7.9
	c2.4-0.2,4.2-0.8,5.3-1.7c1.3-1.1,2-2.7,2.2-5C226.7,196.4,226,194.9,224.6,193.7 M217.1,191.2c-1.5-0.3-2.2-0.9-2.2-1.8
	c0-0.5,0.3-0.9,0.8-1.3c0.4-0.3,0.9-0.4,1.5-0.4h0.1L217.1,191.2z M222.3,201.7c-0.9,1-1.9,1.6-3.2,1.8l0.6-10.4
	c1.2,0.4,2.2,1,2.9,2c0.8,1,1.2,2.1,1.1,3.3C223.6,199.6,223.2,200.7,222.3,201.7"/>
<polygon class="st11" points="46.8,39.6 43.2,37.4 41.9,39.8 45.5,41.9 "/>
<polygon class="st11" points="40.6,42.4 41.9,39.8 38.4,37.7 37.1,40.2 "/>
<polygon class="st11" points="39.1,32.9 37.8,35.4 41.4,37.6 42.8,35 "/>
<path class="st11" d="M51,68.4c-1.1,0.1-2,0.2-2.8,0.3c-0.8,0.1-1.5,0.1-2,0.1c-4.6,0-7.2-1.1-7.7-3.2c-0.1-0.7-0.2-1.4-0.2-2.1
	c0-4.1,2.5-7.5,7.5-10.2c1.5-0.8,2.5-1.2,2.9-1.2h0.1l0.6-3.3c-0.8,0.4-1.5,0.8-1.9,1c-0.5,0.2-0.8,0.4-0.9,0.4
	c-1.3,0.6-2.2,0.9-3,0.9c-0.3,0-0.6-0.1-1-0.2c-0.4-0.1-0.7-0.3-1-0.5c-0.3-0.2-0.6-0.5-0.8-0.7c-0.2-0.3-0.3-0.6-0.3-0.9
	c0-0.3,0.1-0.6,0.3-0.8c0.2-0.3,0.5-0.5,0.8-0.7c0.3-0.2,0.7-0.4,1.1-0.5c0.4-0.1,0.8-0.2,1.2-0.2c1,0,1.9,0.2,2.6,0.5
	c0,0,0.1,0,0.1-0.1c0-0.3-0.1-0.7-0.4-1.1c-0.3-0.4-0.6-0.7-0.9-1c-0.4-0.3-0.8-0.6-1.2-0.8c-0.4-0.2-0.8-0.3-1.1-0.3
	c-1.1,0-2.2,0.8-3.2,2.3c-0.9,1.4-1.4,2.7-1.4,3.9c0,1.8,0.9,3,2.8,3.6c-0.2,0.1-0.4,0.3-0.7,0.6c-0.3,0.3-0.5,0.6-0.8,1.1
	c-1,1.6-1.8,3.2-2.3,4.7c-0.6,1.5-0.8,3-0.8,4.3c0,1.1,0.2,2.1,0.6,3.1c0.4,0.9,0.9,1.7,1.6,2.4c0.7,0.7,1.5,1.2,2.5,1.6
	c1,0.4,2,0.6,3.2,0.6c1.9,0,3.9-0.4,6-1.1c2.5-0.9,4.1-2,4.8-3.4C55,67.7,53.6,68.1,51,68.4"/>
<path class="st12" d="M172.8,191.6v-2.3h-23v2.3h10.6v5.7c-1.5-1.8-3.1-2.6-5-2.6c-1,0-1.9,0.3-2.6,1c-0.7,0.7-1.1,1.6-1.1,2.8
	c0,1.3,0.4,2.4,1.2,3.3c0.8,0.9,1.9,1.3,3.2,1.3c1.4,0,2.8-0.7,4.3-2v7.1l1.9,2.2h0.7v-11.1c1.2-1.1,2.4-1.6,3.5-1.6
	c0.8,0,1.4,0.2,1.7,0.7c0.4,0.5,0.6,1.2,0.6,2.2c0,1.3-0.5,2.9-1.6,4.7l1.9,1.8c0.9-1.6,1.4-3.2,1.4-4.7c0-1.9-0.6-3.4-1.7-4.5
	c-1.1-1.2-2.4-1.7-3.7-1.7c-0.8,0-1.5,0.2-2.1,0.5v-5.2H172.8z M160.4,198.5c-2.3,2.1-4.1,3.2-5.4,3.2c-0.7,0-1.2-0.2-1.6-0.6
	c-0.4-0.4-0.6-0.9-0.6-1.5c0-0.7,0.4-1.3,1.1-1.8c0.8-0.5,1.8-0.8,3.2-0.8c1.3,0,2.4,0.4,3.3,1.1V198.5z"/>
<path class="st13" d="M287.2,330.7c-1.9-1.8-4.7-2.7-8.3-2.7c-4.2,0-7.6,1.3-10.2,3.9c-2.7,2.6-4,5.9-4,10c0,2.8,0.8,5.3,2.2,7.7
	c-2.5,2-3.8,3.8-3.8,5.3c0,0.8,0.3,1.4,0.8,1.8c0.5,0.4,1.3,0.6,2.4,0.6c2,0,4.1-0.6,6.3-1.9c2.1,1.3,4,1.9,5.8,1.9
	c1.9,0,3.5-0.5,4.8-1.6c1.3-1,1.9-2.4,1.9-4.1c0-2.2-1-3.8-3.1-4.9c1-1.6,1.5-3.3,1.5-4.9c0-2.1-0.6-3.8-1.7-5.1
	c-1.1-1.3-2.7-1.9-4.7-1.9c-1.6,0-3,0.5-4.2,1.4c-1.1,0.9-1.7,2.1-1.7,3.6c0,1.1,0.4,2.1,1.1,2.8c0.7,0.7,1.7,1.1,2.9,1.1
	c1,0,1.8-0.3,2.5-1c0.7-0.7,1-1.5,1-2.4c0-1-0.3-1.8-1-2.4c-0.6-0.6-1.5-1-2.4-1c-0.7,0-1.4,0.2-2.1,0.5c0.9-0.9,2-1.3,3.1-1.3
	c1.3,0,2.4,0.4,3.2,1.3c0.8,0.9,1.2,2,1.2,3.4c0,1.6-0.4,3.2-1.2,5c-0.4-0.1-1-0.2-1.8-0.2c-1.6,0-3.2,0.3-5,0.9
	c-1.8,0.6-3.4,1.4-4.8,2.4c-1.4-1.9-2-4.2-2-6.8c0-3.3,1.2-6,3.6-8.2c2.4-2.2,5.3-3.3,8.7-3.3c3.1,0,5.6,0.9,7.6,2.6
	c1.9,1.7,2.9,4.1,2.9,7c0,0.9-0.2,3.4-0.6,7.5l-1,9.7h1.1l1.1-11.2c0.4-4,0.6-6.6,0.6-7.6C290.1,335,289.1,332.5,287.2,330.7
	 M274.6,338c0.4,0,0.8,0.2,1.1,0.5c0.3,0.3,0.5,0.7,0.5,1.1c0,0.4-0.2,0.8-0.5,1.2c-0.3,0.3-0.7,0.5-1.1,0.5c-0.5,0-0.9-0.2-1.2-0.5
	c-0.3-0.3-0.5-0.7-0.5-1.2c0-0.5,0.2-0.9,0.5-1.2C273.7,338.1,274.1,338,274.6,338 M281,348.5c0.9,0.5,1.4,1.3,1.4,2.6
	c0,1.1-0.5,2-1.5,2.7c-1,0.8-2.1,1.2-3.2,1.2c-1.4,0-2.4-0.2-3.1-0.7C276.8,352.9,278.9,350.9,281,348.5 M277,347
	c0.6,0,1.2,0.1,1.8,0.3c-1.5,2.5-3.4,4.5-5.8,6.1c-0.7-0.4-1.5-0.9-2.3-1.6c-0.8-0.7-1.5-1.4-1.9-2C271.4,348,274.2,347,277,347
	 M271.4,354.5c-1.8,1.1-3.5,1.6-4.9,1.6c-0.7,0-1.2-0.1-1.6-0.3c-0.4-0.2-0.5-0.5-0.5-0.9c0-0.6,0.3-1.3,1-2.1
	c0.6-0.8,1.4-1.5,2.3-2.1C269,352.3,270.3,353.6,271.4,354.5"/>
<path class="st14" d="M117.5,144.6c-0.7-1.3-1.5-1.9-2.5-1.9c-0.4,0-0.8,0.1-1,0.3c-0.2,0.2-0.3,0.5-0.3,0.9c0,0.6,0.5,1.2,1.5,1.9
	c1.4,1,2.2,2.3,2.2,4c0,1.8-0.5,3.3-1.5,4.4c-1,1.1-2.1,1.7-3.3,1.7c-0.9,0-1.5-0.2-1.9-0.5c-0.4-0.4-0.6-1-0.6-1.9
	c0-0.4,0.1-1.2,0.2-2.3c0.1-1.2,0.2-2.1,0.2-2.8c0-1-0.3-1.8-0.8-2.4c-0.5-0.5-1.2-0.8-2-0.8c-1.2,0-2.2,0.3-3,1
	c-0.9,0.7-1.6,1.7-2.2,3.1c-0.5-1.4-1.2-2.4-2.2-3.1c-1-0.7-2.2-1-3.6-1c-2.4,0-4.4,0.8-5.8,2.4c-1.4,1.6-2.1,3.5-2.1,5.7
	c0,1.6,0.4,2.8,1.2,3.8c0.8,0.9,1.9,1.4,3.2,1.4c1.2,0,2.1-0.4,2.9-1.1c0.8-0.8,1.1-1.8,1.1-3c0-1.2-0.4-2.1-1.2-2.9
	c-0.8-0.8-1.7-1.2-2.9-1.2c-1,0-2,0.4-3.1,1.3c0.5-1.5,1.2-2.8,2.3-3.7c1.1-0.9,2.2-1.4,3.5-1.4c1.4,0,2.6,0.4,3.4,1.3
	c0.9,0.9,1.3,2.1,1.3,3.7c0,0.3,0,0.5,0,0.7l-0.5,5.9h2.7l0.5-6.5c0.1-1.3,0.5-2.3,1.1-3.1c0.6-0.8,1.3-1.1,2.1-1.1
	c0.5,0,0.8,0.2,1.1,0.5c0.2,0.3,0.4,0.8,0.4,1.5c0,0.4-0.1,1.2-0.2,2.3c-0.1,1.1-0.2,2-0.2,2.7c0,1.3,0.4,2.3,1.2,3
	c0.8,0.7,1.8,1.1,3.1,1.1c1.8,0,3.4-0.8,4.8-2.5c1.4-1.7,2-3.7,2-6.1C118.6,147.6,118.2,145.9,117.5,144.6 M90.7,152.3
	c0.4-0.4,0.9-0.6,1.5-0.6c0.6,0,1.1,0.2,1.5,0.6c0.4,0.4,0.6,0.9,0.6,1.5c0,0.6-0.2,1.1-0.6,1.5c-0.4,0.4-0.9,0.6-1.5,0.6
	c-0.6,0-1.1-0.2-1.5-0.6c-0.4-0.4-0.6-0.9-0.6-1.5C90.1,153.2,90.3,152.7,90.7,152.3"/>
<path class="st15" d="M226.1,293.3c-0.5,1.4-1.3,2.7-2.5,3.8c-1.2,1.1-2.1,1.7-2.9,1.7c-0.2,0-0.3-0.1-0.4-0.3
	c-0.1-0.2-0.1-0.5-0.1-0.9v-2.9c1.2,0,2.2-0.3,3.1-1c0.9-0.6,1.3-1.4,1.3-2.3c0-0.9-0.3-1.6-0.9-2.1c-0.6-0.5-1.4-0.8-2.3-0.8
	c-1,0-1.8,0.4-2.3,1.1c-0.5,0.7-0.8,1.8-0.8,3.2c-1.7-0.5-3.1-1.8-4.3-3.9l-0.7,0.3c0.4,1.1,1.1,2.2,2,3.2c0.9,1,1.9,1.7,2.9,2.1
	v3.6c0,0.7,0.3,1.3,0.8,1.8c0.5,0.5,1.1,0.7,1.6,0.7c0.7,0,1.5-0.2,2.4-0.7c0.9-0.4,1.7-1,2.4-1.7c0.7-0.7,1-1,1-1
	c0.2,0,0.2,0.4,0.2,1.1c0,1.5-0.6,2.9-1.7,4.3c-1.1,1.4-2.6,2.1-4.6,2.1c-2.2,0-4.2-1.3-6-3.9c-1.8-2.6-3.1-6.4-3.7-11.5H210
	c0.4,4.7,1.6,8.9,3.6,12.5c2,3.7,4.4,5.5,7.4,5.5c2,0,3.6-0.8,4.9-2.4c1.3-1.6,1.9-3.7,1.9-6.2C227.9,296.8,227.3,295,226.1,293.3
	 M220.3,291.7c0-0.7,0.1-1.3,0.4-1.7c0.3-0.4,0.7-0.6,1.1-0.6c0.8,0,1.3,0.4,1.3,1.1c0,0.6-0.3,1.1-0.8,1.5
	c-0.6,0.5-1.2,0.7-1.8,0.7h-0.2V291.7z"/>
<path class="st16" d="M282.7,288.4V303c-0.7-1.3-1.3-2.3-1.8-3.2c-0.5-0.9-1-1.5-1.4-2V290l-1.3-4.1h-0.6v6.8
	c-1.4-1.7-2.5-2.9-3.3-3.5c-0.8-0.6-1.4-1-2-1.3c0.5,1,0.7,1.9,0.7,2.7c0,1.3-0.3,2.3-1,3c-0.7,0.7-1.5,1.1-2.4,1.1
	c-0.4,0-0.8-0.1-1.1-0.2c-0.3-0.2-0.4-0.3-0.4-0.5c0-0.3,0.2-0.5,0.6-0.6c0.7-0.2,1.2-0.4,1.4-0.8c0.3-0.4,0.4-0.8,0.4-1.1
	c0-0.7-0.2-1.3-0.6-1.8c-0.4-0.5-1-0.7-1.7-0.7c-0.8,0-1.5,0.2-2,0.8c-0.5,0.5-0.8,1.2-0.8,2c0,1,0.4,1.9,1.2,2.6
	c0.8,0.8,1.8,1.1,3,1.1c1.3,0,2.4-0.4,3.5-1.2c1.1-0.8,1.7-1.9,1.8-3.1c0.6,0.4,1,0.7,1.3,1.1c0.3,0.3,0.4,0.7,0.4,1
	c0,0.4-0.4,1-1.1,1.9c-0.8,0.8-2,1.6-3.6,2.2c-1.6,0.6-3.6,0.9-6,1l1,3.1c1.2-0.1,2.5,0.1,3.7,0.4c1.2,0.3,2.5,0.8,3.7,1.5
	c-0.7,0.9-1.6,1.6-2.7,2.1c-1.1,0.5-2.5,0.8-4,0.9l0.7,2.2c0.4,0,0.7,0,0.9,0c1,0,2.1,0.2,3.1,0.5c1,0.3,1.9,0.8,2.9,1.4l0.5-0.5
	c-0.6-0.6-1.3-1.1-2.1-1.6c-0.8-0.4-1.6-0.7-2.5-0.9c0.7-0.2,1.3-0.6,2-1.2c0.7-0.6,1.3-1.4,2-2.4c0.8,0.5,1.5,1.1,2.1,1.7
	c0.6,0.6,1.1,1.3,1.5,2h0.7v-7.2c0.9,0.7,1.7,1.6,2.4,2.8c0.8,1.2,1.5,2.7,2.1,4.4h0.6v-17.3h3.1v-1.7H282.7z M277.6,304.9
	c-1-1.2-2.1-2.1-3.2-2.9c-1.1-0.8-2.3-1.4-3.5-1.8c1.7-0.6,3.1-1.3,4.2-2.3c1.1-1,2-2.2,2.5-3.6V304.9z"/>
<path class="st13" d="M222.5,241.4c0.1-0.3,0.2-0.5,0.4-0.6c0.2-0.2,0.3-0.3,0.5-0.4c0.2-0.1,0.4-0.1,0.6-0.1c0.2,0,0.4,0,0.6,0.1
	c0.2,0.1,0.3,0.2,0.4,0.3c0.1,0.1,0.2,0.2,0.2,0.3c0,0.1,0.1,0.2,0.1,0.4c0,0.1,0,0.3-0.1,0.5c-0.1,0.2-0.2,0.4-0.4,0.6l1.6,1.2
	c0.2-0.2,0.3-0.4,0.4-0.5c0.1-0.2,0.2-0.3,0.3-0.5c0.1-0.2,0.2-0.4,0.2-0.6c0.1-0.2,0.1-0.5,0.1-0.8c0-0.4-0.1-0.8-0.3-1.2
	c-0.2-0.4-0.4-0.7-0.8-1c-0.3-0.3-0.7-0.5-1.1-0.7c-0.4-0.2-0.8-0.2-1.3-0.2c-0.5,0-1,0.1-1.5,0.3c-0.5,0.2-0.9,0.4-1.2,0.8
	c-0.3,0.3-0.6,0.8-0.8,1.3c-0.2,0.5-0.3,1.1-0.3,1.8c0,0.6,0.1,1.1,0.2,1.7c0.1,0.5,0.3,1.1,0.6,1.6c0.2,0.5,0.5,1,0.7,1.5
	c0.3,0.5,0.5,1,0.7,1.5c0.2,0.5,0.4,1.1,0.6,1.6c0.1,0.5,0.2,1.1,0.2,1.7c0,0.5-0.1,1.1-0.2,1.7c-0.2,0.6-0.4,1.2-0.8,1.7
	c-0.4,0.5-0.9,0.9-1.5,1.3c-0.6,0.3-1.4,0.5-2.4,0.5c-0.4,0-0.9-0.1-1.3-0.2c-0.5-0.1-0.9-0.3-1.3-0.6c-0.4-0.3-0.7-0.6-1-1.1
	c-0.3-0.4-0.4-0.9-0.4-1.5c0-0.4,0.1-0.7,0.2-1c0.1-0.3,0.3-0.6,0.5-0.8c0.2-0.2,0.5-0.4,0.8-0.5c0.3-0.1,0.6-0.2,0.8-0.2h1.6V249
	h-2c-0.3,0-0.7,0-1-0.1c-0.3-0.1-0.7-0.2-1-0.3c-0.3-0.2-0.5-0.4-0.7-0.7c-0.2-0.3-0.3-0.6-0.3-1.1c0-0.4,0.1-0.8,0.4-1.1
	c0.3-0.3,0.6-0.5,0.9-0.7c0.4-0.2,0.8-0.3,1.2-0.5c0.4-0.1,0.8-0.2,1.1-0.2l-0.3-2.1c-0.8,0.1-1.6,0.3-2.2,0.5
	c-0.7,0.3-1.2,0.6-1.7,0.9c-0.5,0.4-0.8,0.8-1.1,1.3c-0.3,0.5-0.4,1-0.4,1.5c0,0.5,0.1,1,0.2,1.4c0.1,0.4,0.3,0.8,0.6,1.1
	c0.2,0.3,0.5,0.6,0.8,0.8c0.3,0.2,0.7,0.4,1,0.5c-0.6,0.5-1,1.1-1.2,1.6c-0.2,0.5-0.3,1.1-0.3,1.7c0,0.9,0.2,1.7,0.6,2.4
	c0.4,0.7,0.9,1.3,1.5,1.7c0.6,0.5,1.3,0.8,2,1c0.7,0.2,1.5,0.3,2.2,0.3c1.1,0,2.1-0.2,3-0.5c0.9-0.4,1.6-0.9,2.2-1.5
	c0.6-0.7,1.1-1.4,1.4-2.3c0.3-0.9,0.5-1.8,0.5-2.9c0-0.6-0.1-1.2-0.2-1.8c-0.1-0.6-0.3-1.1-0.6-1.7c-0.2-0.5-0.5-1.1-0.7-1.6
	c-0.3-0.5-0.5-1-0.7-1.6c-0.2-0.5-0.4-1-0.6-1.5c-0.1-0.5-0.2-1-0.2-1.5C222.4,242,222.4,241.7,222.5,241.4"/>
<path class="st9" d="M52.9,349.4c0.2-0.1,0.5-0.2,0.8-0.3c0.3,0,0.6-0.1,0.9-0.1l1.8-1.5c-0.3-0.2-0.6-0.5-0.9-0.8
	c-0.3-0.2-0.6-0.5-0.9-0.8c-0.3-0.3-0.6-0.7-1-1c0.5-0.3,0.9-0.6,1.3-0.9c0.3-0.3,0.6-0.6,0.8-0.8c0.2-0.3,0.4-0.6,0.5-0.9
	c0.1-0.3,0.1-0.7,0.1-1.1c0-0.4-0.1-0.8-0.2-1.2c-0.2-0.4-0.4-0.7-0.7-1c-0.3-0.3-0.7-0.5-1.1-0.7c-0.4-0.2-0.9-0.2-1.4-0.2
	c-0.4,0-0.9,0.1-1.3,0.2c-0.4,0.2-0.8,0.4-1.2,0.7c-0.3,0.3-0.6,0.7-0.8,1.1c-0.2,0.4-0.3,0.9-0.3,1.5c0,0.5,0.1,0.9,0.3,1.4
	c0.2,0.5,0.5,0.9,0.8,1.3l-3.1,1.7v-8.7h-2.1v7c-0.4-0.4-0.9-0.9-1.3-1.2c-0.5-0.4-0.9-0.7-1.4-1c-0.5-0.3-1-0.5-1.5-0.7
	c-0.5-0.2-1-0.3-1.6-0.3c-0.5,0-0.9,0.1-1.3,0.2c-0.4,0.1-0.8,0.3-1.1,0.5c-0.3,0.2-0.6,0.5-0.9,0.8c-0.3,0.3-0.4,0.7-0.6,1l1.7,1
	c0.1-0.2,0.2-0.3,0.3-0.5c0.1-0.2,0.3-0.3,0.5-0.5c0.2-0.1,0.4-0.3,0.7-0.4c0.3-0.1,0.6-0.1,0.9-0.1c0.6,0,1.2,0.1,1.7,0.3
	c0.5,0.2,1,0.5,1.5,0.8c0.5,0.3,0.9,0.7,1.3,1.1c0.4,0.4,0.8,0.8,1.2,1.2v0.6l-7.6,4.3l1.1,1.8c0.6-0.4,1.3-0.7,2-1.1
	c0.6-0.3,1.3-0.7,2.1-1.2c0.8-0.4,1.6-0.9,2.5-1.4v4.9c0,0.4,0,0.7,0.1,1c0.1,0.3,0.2,0.6,0.4,0.9c0.2,0.3,0.4,0.5,0.7,0.6
	c0.3,0.2,0.6,0.2,1,0.2c0.3,0,0.6,0,0.8-0.2c0.2-0.1,0.5-0.2,0.6-0.4c0.2-0.2,0.3-0.3,0.5-0.5c0.1-0.2,0.2-0.4,0.3-0.6l-1.1-0.9
	c-0.1,0.1-0.2,0.3-0.3,0.4c-0.1,0.1-0.2,0.1-0.4,0.1c-0.2,0-0.4-0.1-0.4-0.2c-0.1-0.1-0.1-0.3-0.1-0.5v-6.1l4.5-2.6
	c0.3,0.3,0.6,0.6,0.9,0.8c0.3,0.2,0.5,0.4,0.7,0.5c-0.3,0.1-0.7,0.2-1.1,0.3c-0.4,0.2-0.8,0.4-1.1,0.7c-0.4,0.3-0.7,0.6-0.9,1.1
	c-0.2,0.4-0.4,0.9-0.4,1.5c0,0.5,0.1,1,0.3,1.4c0.2,0.4,0.4,0.8,0.7,1.1c0.3,0.3,0.7,0.6,1.1,0.7c0.4,0.2,0.8,0.3,1.3,0.3
	c0.1,0,0.3,0,0.5,0c0.2,0,0.4-0.1,0.6-0.1c0.2,0,0.5-0.1,0.7-0.2c0.2-0.1,0.4-0.2,0.6-0.3l0.7-2.4c-0.7,0.4-1.3,0.6-1.7,0.7
	c-0.4,0.1-0.8,0.1-1,0.1c-0.2,0-0.5,0-0.7-0.1c-0.2-0.1-0.4-0.2-0.5-0.3c-0.2-0.1-0.3-0.3-0.4-0.5c-0.1-0.2-0.1-0.3-0.1-0.5
	c0-0.4,0.1-0.6,0.2-0.9C52.4,349.7,52.7,349.5,52.9,349.4 M52.5,343.2l-0.1,0.1c-0.2-0.3-0.4-0.6-0.6-0.9c-0.1-0.3-0.2-0.5-0.2-0.8
	c0-0.5,0.1-0.9,0.4-1.2c0.3-0.3,0.7-0.5,1.3-0.5c0.3,0,0.6,0.1,0.9,0.3c0.3,0.2,0.4,0.4,0.4,0.8c0,0.1,0,0.3,0,0.4
	c0,0.2-0.1,0.3-0.3,0.5c-0.1,0.2-0.4,0.4-0.6,0.6C53.4,342.6,53,342.9,52.5,343.2"/>
<path class="st3" d="M285.7,196.4c-0.1-0.4-0.3-0.9-0.6-1.3c-0.3-0.4-0.6-0.8-1.1-1.1c-0.4-0.3-1-0.6-1.5-0.7v-6.2h-2.1v6.2
	c-0.8,0.1-1.4,0.4-2,0.9c-0.6,0.4-1.1,0.9-1.6,1.4c-0.8-0.9-1.6-1.5-2.3-1.9c-0.7-0.3-1.5-0.5-2.3-0.5c-0.6,0-1.1,0.1-1.7,0.3
	c-0.6,0.2-1.1,0.5-1.6,1c-0.5,0.4-0.9,1-1.1,1.6c-0.3,0.6-0.4,1.3-0.4,2.2c0,0.6,0.1,1.2,0.3,1.8c0.2,0.6,0.5,1.2,0.9,1.7
	c0.4,0.6,0.8,1.1,1.2,1.6c0.5,0.5,0.9,1,1.4,1.4c0.5,0.4,1,0.8,1.4,1.2c0.5,0.4,0.9,0.7,1.2,0.9l1.2-1.5c-0.2-0.2-0.6-0.4-0.9-0.7
	c-0.4-0.3-0.8-0.6-1.2-0.9c-0.4-0.3-0.8-0.7-1.2-1.1c-0.4-0.4-0.8-0.8-1.1-1.3c-0.3-0.5-0.6-1-0.8-1.5c-0.2-0.5-0.3-1.1-0.3-1.6
	c0-0.3,0.1-0.6,0.2-1c0.1-0.3,0.3-0.7,0.5-0.9c0.2-0.3,0.5-0.5,0.9-0.7c0.4-0.2,0.8-0.3,1.3-0.3c0.5,0,1,0.1,1.6,0.4
	c0.5,0.2,1.2,0.7,1.9,1.4c-0.2,0.2-0.3,0.5-0.4,0.7c-0.1,0.2-0.2,0.4-0.3,0.5l1.8,1.1c0.2-0.4,0.4-0.8,0.7-1.3
	c0.3-0.5,0.6-0.9,1-1.3c0.4-0.4,0.8-0.7,1.2-1c0.5-0.3,1-0.4,1.5-0.4c0.3,0,0.6,0,0.9,0.1c0.3,0.1,0.6,0.2,0.8,0.4
	c0.2,0.2,0.4,0.4,0.6,0.7c0.2,0.3,0.2,0.6,0.2,1c0,0.6-0.2,1.1-0.5,1.5c-0.3,0.4-0.7,0.7-1.2,1c-0.5,0.3-1,0.5-1.6,0.8
	c-0.6,0.2-1.1,0.5-1.6,0.8c-0.5,0.3-0.9,0.7-1.2,1.1c-0.3,0.4-0.5,1-0.5,1.7c0,0.3,0.1,0.6,0.2,0.8c0.1,0.3,0.2,0.5,0.4,0.7
	c0.2,0.2,0.4,0.4,0.6,0.6c0.2,0.2,0.4,0.3,0.7,0.4c-0.4,0.2-0.6,0.6-0.8,1c-0.2,0.4-0.3,0.8-0.3,1.3c0,0.4,0.1,0.9,0.3,1.3
	c0.2,0.4,0.4,0.8,0.7,1.1c0.3,0.3,0.7,0.6,1.1,0.7c0.4,0.2,0.9,0.3,1.4,0.3c0.4,0,0.7-0.1,1.1-0.2c0.3-0.1,0.6-0.2,0.9-0.4
	c0.2-0.2,0.5-0.3,0.6-0.5c0.2-0.2,0.3-0.3,0.4-0.5l-0.9-1.4c-0.2,0.2-0.4,0.4-0.8,0.6c-0.4,0.1-0.7,0.2-1.1,0.2c-0.1,0-0.3,0-0.5,0
	c-0.2,0-0.4-0.1-0.6-0.2c-0.2-0.1-0.4-0.2-0.5-0.4c-0.1-0.2-0.2-0.4-0.2-0.7c0-0.1,0-0.2,0.1-0.4c0-0.1,0.1-0.3,0.2-0.4
	c0.1-0.1,0.2-0.2,0.4-0.3c0.2-0.1,0.4-0.1,0.7-0.1h1.4l-0.2-2h-1c-0.6,0-1.1-0.1-1.4-0.5c-0.4-0.3-0.5-0.7-0.5-1.1
	c0-0.4,0.2-0.7,0.5-1c0.3-0.3,0.7-0.5,1.2-0.8c0.5-0.2,1-0.5,1.6-0.7c0.6-0.3,1.1-0.6,1.6-0.9c0.5-0.4,0.9-0.8,1.2-1.4
	c0.3-0.5,0.5-1.2,0.5-2C285.9,197.3,285.9,196.9,285.7,196.4"/>
<path class="st17" d="M169.7,338.7v14.5c-1.4-1.5-2.9-2.5-4.4-3.1v-5.8c0-1.3-0.4-2.4-1.3-3.4c-0.9-1-2-1.8-3.4-2.4l-2.6,2.3
	l-2.6-2.2c-3.3,1.3-5,3.4-5,6.5c0,0.9,0.3,2.4,0.8,4.3c0.5,1.9,0.8,3.3,0.8,4.2v2.5h2.6c0-0.3,0.1-0.7,0.4-1.2
	c0.3-0.4,0.9-1.2,2-2.2c1.5-1.5,2.4-2.6,2.8-3.4c0.4-0.8,0.6-1.6,0.6-2.3v-0.1c0-0.7-0.3-1.4-0.8-1.9c-0.5-0.5-1.2-0.8-1.9-0.8
	c-0.7,0-1.4,0.3-1.9,0.8c-0.5,0.5-0.8,1.2-0.8,1.9c0,0.6,0.2,1.1,0.5,1.6c0.4,0.5,0.8,0.8,1.4,1c-0.2,0.4-0.6,0.9-1.1,1.6l-1.4,1.9
	c0-0.7-0.3-2-0.8-4.1c-0.5-1.9-0.7-3.2-0.7-3.8c0-2,0.8-3.3,2.5-4.1l2.6,2.2l2.6-2.2c1.5,0.9,2.2,2,2.2,3.4v5.5
	c-1.1,0.2-2,0.6-2.7,1.2c-0.7,0.6-1,1.4-1,2.2c0,0.9,0.2,1.6,0.7,2.1c0.5,0.5,1.1,0.8,1.9,0.8c2.3,0,3.5-1.4,3.5-4.3
	c1.5,0.7,3,2.1,4.5,4.2h2.4v-17.3H169.7z M156.7,346.8c0-0.2,0.1-0.5,0.3-0.7c0.2-0.2,0.4-0.3,0.7-0.3c0.2,0,0.5,0.1,0.6,0.3
	c0.2,0.2,0.3,0.4,0.3,0.7c0,0.3-0.1,0.5-0.3,0.7c-0.2,0.2-0.4,0.3-0.6,0.3c-0.3,0-0.5-0.1-0.7-0.3
	C156.8,347.3,156.7,347.1,156.7,346.8 M162.8,353c0,0.4-0.1,0.8-0.3,1c-0.2,0.2-0.4,0.4-0.7,0.4c-0.2,0-0.4-0.1-0.6-0.3
	c-0.2-0.2-0.3-0.5-0.3-0.8c0-0.4,0.2-0.8,0.5-1.1c0.3-0.3,0.8-0.5,1.4-0.6V353z"/>
<path class="st10" d="M223,89c-0.6,0.9-1.6,2-3.3,3.2c-2.9,2.2-5.9,3.7-10.1,5c0.7,0.8,0.9,1.1,1.2,2c2.3-0.8,5-2,6.9-3.1
	c2.2-1.3,4-2.6,6.2-4.8c0.4-0.4,0.6-0.5,1.1-0.9L223,89z"/>
<path class="st10" d="M222.7,100.9c0.1-0.1,0.1-0.1,0.2-0.2c1.6-1.1,4.6-3.7,6-5.2c0.4-0.5,0.5-0.5,1-0.9l-2-1.5
	c-1.4,2.3-6.5,6.5-10.9,8.8c-3,1.6-5.2,2.4-9,3.5c0.7,0.7,0.9,1,1.2,2c3.8-1.3,5-1.7,7.2-2.9c1.4-0.7,2.5-1.3,4-2.2v8.5
	c0,1.7,0,2.3-0.2,3.1h2.6c-0.1-0.8-0.1-1.5-0.1-3.2V100.9z"/>
<path class="st3" d="M164.7,46.6c-0.7-1.3-1.1-1.9-2-3l-1.6,0.7c0.9,1.1,1.4,1.9,2.1,3.2L164.7,46.6z"/>
<path class="st3" d="M159.3,48.5c-0.8-1.5-1.2-2-2.4-3.5l-1.6,0.7c1.1,1.3,1.6,2.1,2.4,3.7L159.3,48.5z"/>
<path class="st3" d="M168.7,39c-0.8,0.5-1.9,1.1-3.7,1.6c-3.6,1.2-7.8,1.9-12.6,2.3c0.6,0.7,0.8,1.1,1,1.8c2.8-0.3,4.9-0.7,7.5-1.2
	c3.3-0.8,5.1-1.3,8.2-2.5c0.9-0.4,0.9-0.4,1.2-0.5L168.7,39z"/>
<path class="st3" d="M169.8,43.7c-0.6,0.8-1.8,1.7-3.5,2.7c-4.2,2.6-8.9,4.2-14.5,4.9c0.6,0.7,0.8,1,1.1,1.8c4-0.8,6.9-1.7,10.5-3.2
	c0.8,0.8,1,1.1,1.5,1.9c-3.3,2.2-8,3.9-13.2,4.7c0.6,0.6,0.8,1,1.2,1.8c5.5-1.3,9.5-2.8,12.9-5.1c0.5,0.9,0.7,1.5,0.9,2.2
	c0.1,0.2,0.1,0.2,0.1,0.3c-1.8,1.4-2.9,2-5,3c-3.4,1.6-6.3,2.5-10.3,3.2c0.6,0.7,0.9,1,1.2,1.8c3.5-0.8,6-1.7,9-3
	c2.3-1.1,3.8-2,5.5-3.2c0.2,1.4,0.3,2,0.3,3.2c0,2.8-0.6,3.5-2.8,3.5c-1.1,0-2.1-0.1-3.4-0.4c0.3,0.8,0.4,1.1,0.5,2
	c1.2,0.1,1.9,0.1,2.8,0.1c1.9,0,2.9-0.2,3.6-0.9c0.9-0.8,1.3-2.3,1.3-4.7c0-4.3-1.5-8.2-4.3-11.2c2.2-1.1,3.8-2.1,6.3-4L169.8,43.7z
	"/>
<path class="st18" d="M55.3,188.9c-1,0.6-1.9,1-3.5,1.4c-4.1,1.2-10.4,2-15.1,2c-0.8,0-1.3,0-2.6-0.1c0.4,0.7,0.6,1.1,0.8,2
	c3.2-0.1,4.5-0.2,6-0.3c3.3-0.3,6.9-0.9,9.6-1.5c2.6-0.6,4.1-1.1,6.5-2L55.3,188.9z"/>
<path class="st18" d="M54.2,184.8c-2.9,1.6-10.1,2.8-16.5,2.8c-0.9,0-1.6,0-3-0.1c0.7,1.2,0.8,1.3,0.9,2c8.4-0.2,15.7-1.4,20.4-3.3
	L54.2,184.8z"/>
<path class="st18" d="M46.6,202.9h6.5c1.2,0,2,0,2.8,0.2V201c-0.8,0.1-1.3,0.1-2.8,0.1h-6.5v-3.6c4.8-0.8,9.4-2,12-3.3l-1.9-1.4
	c-0.9,0.6-2.8,1.3-5.3,2c-4.7,1.2-12.1,2.1-17.3,2.1h-1.1c0.4,0.5,0.7,1.3,0.8,1.9c3.4-0.2,6.7-0.5,10.8-1.1v10
	c-2.6-0.9-4.4-2.6-5.7-5.4c0.3-0.9,0.4-1.4,0.7-2.6l-2-0.4c-0.2,3.5-2.3,7.5-5.3,10.4c0.8,0.5,1.1,0.7,1.7,1.4c1.8-2,3-3.9,4.2-6.8
	c1.9,3.5,4.4,5.1,8.7,5.7c1.8,0.3,4.4,0.4,7.2,0.4c1.4,0,2.4,0,4.7-0.1c0.1-0.8,0.2-1.1,0.6-2.1c-3.1,0.3-4.7,0.3-6.8,0.3
	c-2.5,0-4.3-0.1-6.1-0.4V202.9z"/>
<path class="st0" d="M114.8,358.9h-3.6l-2.8-7.3h-10l-2.6,7.3h-3.3l9.2-23.9h3.4L114.8,358.9z M107.5,349.1c-2-5.2-3.1-8.1-3.3-8.8
	c-0.3-0.7-0.5-1.6-0.8-2.8h-0.1c-0.3,1.6-0.7,3.1-1.2,4.5l-2.7,7.2H107.5z"/>
<path class="st19" d="M285.5,156.1h-5l-1.4,6.9h-2.5l1.4-6.9h-5.1l-1.4,6.9H269l1.4-6.9h-2.8v-2.4h3.2l1.2-5.9h-4.5v-2.4h4.9l1.4-7
	h2.4l-1.4,7h5.1l1.4-7h2.4l-1.4,7h2.8v2.4h-3.3l-1.2,5.9h4.5V156.1z M279.7,147.8h-5.1l-1.2,5.9h5.1L279.7,147.8z"/>
<path class="st20" d="M153.3,139.3h3.1v14c0,2.2,0.4,3.8,1.2,4.9c0.8,1,2.1,1.5,3.9,1.5c1.8,0,3-0.5,3.7-1.4c0.7-1,1.1-2.6,1.1-4.8
	v-14.1h2.8v14c0,3-0.6,5.2-1.9,6.6c-1.2,1.4-3.2,2.1-5.9,2.1c-2.8,0-4.8-0.7-6.1-2.1c-1.3-1.4-2-3.6-2-6.6V139.3z"/>
<path class="st21" d="M109.5,59.4c1.8-2.1,2.7-4.7,2.7-7.6h-2.7l0,1c0,2.2-0.4,3.9-1.2,5c-1.8-2.1-3.4-4.3-4.7-6.6
	c2.9-1.5,4.4-3.2,4.4-5.2c0-1.2-0.4-2.1-1.3-2.9c-0.8-0.8-1.9-1.1-3.2-1.1c-1.3,0-2.5,0.4-3.4,1.2c-0.9,0.8-1.4,1.8-1.4,3
	c0,1.1,0.4,2.4,1.4,4.1c-3.3,1.1-4.9,3.2-4.9,6.3c0,1.9,0.7,3.4,2,4.6c1.4,1.2,3.1,1.8,5.2,1.8c2,0,3.7-0.6,5.2-1.7l1,1.2h3.8
	C111.3,61.4,110.4,60.4,109.5,59.4 M103.4,43.9c1.4,0,2.1,0.7,2.1,2.1c0,1.4-1,2.6-2.9,3.5c-0.9-1.4-1.3-2.6-1.3-3.5
	C101.3,44.6,102,43.9,103.4,43.9 M102.8,60.9c-1.4,0-2.6-0.5-3.5-1.5c-1-1-1.4-2.2-1.4-3.6c0-1.9,1-3.2,3.1-4
	c1.7,2.9,3.5,5.6,5.4,7.9C105.2,60.5,104,60.9,102.8,60.9"/>
<path class="st15" d="M44.8,91.4c0.4,0,1.2,0,1.2,0.3c0,0.2-0.2,0.4-0.6,0.6c-0.1,1.9-0.1,3.6-0.2,5.2c1.9,6.6,5.8,10.3,9.8,12.4
	c-0.6,0.7-1.4,1.7-2,2.5c-3.9-2.7-7.1-6.1-8.7-9.6c-1.6,5.3-5.5,8.3-8.7,9.8c-0.4-0.6-1-1.3-2-2.5c6.9-2.8,8.9-7.4,8.9-16.3
	c0-0.7,0-1.6,0-2.5H44.8z"/>
<path class="st22" d="M269.6,62.8V48.6c0-1.7,0.2-3,0.6-4c0.4-1,1.1-1.7,2.2-2.2c1-0.5,2.1-0.8,3.3-0.8c1.6,0,2.9,0.4,3.8,1.2
	c1,0.8,1.5,1.8,1.5,2.9c0,0.9-0.3,1.8-0.8,2.7c-0.1,0.2-0.4,0.7-0.8,1.4c-0.4,0.7-0.6,1.3-0.6,1.7c0,0.4,0.2,0.8,0.5,1.1
	c0.3,0.3,1,0.8,2.1,1.5c1.2,0.8,2,1.5,2.4,2.1c0.4,0.6,0.6,1.3,0.6,2.1c0,1.3-0.5,2.4-1.5,3.4c-1,0.9-2.2,1.4-3.7,1.4
	c-2.3,0-4.1-1.1-5.2-3.4l2.2-1.1c0.8,1.6,1.8,2.4,2.9,2.4c0.7,0,1.3-0.2,1.8-0.7c0.5-0.5,0.8-1.1,0.8-1.7c0-0.5-0.1-1-0.4-1.3
	c-0.3-0.3-0.7-0.7-1.4-1.2c-1.4-1-2.4-1.8-2.9-2.4c-0.5-0.6-0.8-1.2-0.8-1.9c0-0.4,0.1-0.9,0.2-1.2c0.2-0.4,0.4-0.9,0.8-1.6
	c0.6-1,0.9-1.7,1.1-2.1c0.1-0.4,0.2-0.7,0.2-1c0-0.6-0.3-1.2-0.8-1.6c-0.5-0.4-1.2-0.6-2-0.6c-1.1,0-1.9,0.3-2.5,1.1
	c-0.6,0.7-0.9,2-0.9,4v14.1H269.6z"/>
<path class="st23" d="M172.5,107.1c-0.6-0.2-1.3-0.5-2.3-0.9c-1-0.4-2-0.8-3.1-1.1c-1.1-0.4-2.3-0.7-3.4-1.1
	c-1.2-0.3-2.2-0.6-3.2-0.8c0-0.2,0-0.4,0-0.7c0-0.3-0.1-0.6-0.1-0.9c0-0.3-0.1-0.6-0.1-0.9c0-0.3-0.1-0.5-0.1-0.7
	c0.6-0.5,1.3-0.9,2.2-1.5c0.8-0.5,1.6-1.1,2.4-1.6c0.8-0.6,1.5-1.1,2.2-1.6c0.7-0.5,1.2-1,1.7-1.5c0.2-0.3,0.2-0.6,0-0.9
	c-0.2-0.3-0.4-0.4-0.7-0.4c-0.6,0.2-1.2,0.4-1.8,0.8c-0.7,0.4-1.3,0.9-2,1.4c-0.7,0.5-1.4,1-2.1,1.5c-0.7,0.5-1.4,1-2.1,1.4
	c-0.2-0.7-0.3-1.4-0.3-2.1c0-0.8-0.1-1.5-0.1-2.2c0-0.4-0.1-0.8-0.2-1.3c-0.1-0.5-0.2-0.9-0.4-1.2c-0.2-0.3-0.3-0.4-0.6-0.2
	c-0.2,0.1-0.5,0.6-0.7,1.5c-0.2,1.1-0.2,2.2-0.2,3.3c0,1.1,0.1,2.2,0.3,3.1c-0.6,0.3-1.3,0.6-2,0.8c-0.7,0.3-1.3,0.5-1.9,0.8
	c-0.6,0.2-1.2,0.4-1.7,0.6c-0.5,0.2-0.9,0.3-1.3,0.3c-0.5,0.3-0.8,0.6-1,0.9c-0.1,0.3-0.1,0.6,0,0.9c0.1,0.2,0.3,0.5,0.6,0.6
	c0.3,0.2,0.6,0.3,0.9,0.4c0.5,0.1,1,0.2,1.6,0.2c0.6,0.1,1.2,0.2,1.9,0.3c0.6,0.1,1.3,0.2,1.9,0.3c0.6,0.1,1.1,0.2,1.6,0.4
	c0.1,0.6,0.1,1.2,0.1,1.7c0,0.5,0,1,0,1.4c0,0.5,0.1,1,0.1,1.7c0,0.6,0.1,1.4,0.2,2.4c0.1,0.1,0.2,0.3,0.4,0.4
	c0.2,0.1,0.4,0.2,0.6,0.2c0.2,0,0.4,0,0.6-0.1c0.2-0.1,0.3-0.2,0.3-0.5c0.2-0.1,0.3-0.4,0.3-0.9c0-0.6-0.1-1.2-0.2-1.9
	c-0.1-0.7-0.2-1.4-0.3-2.1c-0.1-0.7-0.1-1.2-0.1-1.6c0.5,0,1.2,0.2,2.1,0.4c0.9,0.2,1.9,0.5,3,0.8c1.1,0.3,2.1,0.6,3.2,0.9
	c1.1,0.3,2,0.5,2.8,0.7c0.2,0,0.3-0.1,0.4-0.2c0.1-0.1,0.2-0.3,0.3-0.4c0.1-0.1,0.1-0.3,0.1-0.4
	C172.6,107.2,172.6,107.1,172.5,107.1 M156.8,102.6c-0.5-0.1-1-0.2-1.5-0.2c0-0.1,0-0.2,0.2-0.4c0.2-0.1,0.4-0.3,0.7-0.4
	c0.3-0.1,0.6-0.3,0.9-0.4c0.3-0.1,0.6-0.3,0.9-0.4l0.3,2.1C157.8,102.8,157.3,102.7,156.8,102.6"/>
<polygon class="st14" points="107.3,292.9 110.2,294.6 111.4,292.7 108.5,290.8 "/>
<polygon class="st14" points="111.4,292.7 114.4,294.6 115.7,292.4 112.7,290.6 "/>
<polygon class="st14" points="110.8,288.3 107.8,286.4 106.6,288.5 109.5,290.2 "/>
<polygon class="st14" points="115,288 112,286.2 110.8,288.3 113.8,290.2 "/>
<path class="st14" d="M115.6,302.5c-0.1-0.8-0.2-1.6-0.4-2.4c-0.6-2.3-1.4-3.5-2.5-3.5c-0.9,0-1.8,0.7-2.8,2.2
	c-0.9,1.4-1.4,2.5-1.4,3.5c0,0.9,0.5,1.7,1.5,2.3l2.7,1.2c-0.1,0.2-1.7,0.3-4.6,0.4c-2.3,0.1-4,0.2-5.2,0.2c-5,0-7.9-0.4-8.9-1.1
	c-0.8-0.7-1.2-1.5-1.2-2.5c0-0.2,0.1-1.1,0.3-2.7c-0.6,1-1,1.6-1.1,1.8c-0.3,0.6-0.4,1.3-0.4,2.1c0,1.1,0.4,2.3,1.1,3.4
	c0.8,1.2,3.9,1.9,9.3,1.9c2.3,0,4.5-0.1,6.7-0.2c2.1-0.1,4.2-0.3,6.2-0.5c0.6-0.1,0.9-1.3,0.9-3.7
	C115.7,304.1,115.7,303.3,115.6,302.5 M114.4,304l-4.6-2.5c0-0.2,0.1-0.4,0.3-0.6c0.2-0.2,0.4-0.5,0.6-0.7c0.2-0.2,0.4-0.4,0.6-0.6
	c0.2-0.2,0.4-0.2,0.5-0.2c0.5,0,1.1,0.6,1.7,1.8c0.6,1.1,0.9,2,0.9,2.6C114.5,303.9,114.5,304,114.4,304"/>
<path class="st19" d="M216.3,334.9l-0.6,2.5c-2.2,0.7-3.3,2.7-3.3,5.8c0,1.7,0.4,3.1,1.3,4.5c0.9,1.3,2.2,2.1,3.9,2.5v-10.6
	c0-1.1,0.1-2,0.2-2.6c0.2-0.6,0.5-1.1,1.1-1.5c0.6-0.4,1.4-0.6,2.3-0.6c1.5,0,2.8,0.3,3.7,0.9c1,0.6,1.8,1.6,2.4,3
	c0.7,1.3,1,2.8,1,4.3c0,1.3-0.3,2.6-0.8,3.9c-0.5,1.3-1.4,2.5-2.6,3.6c-1.2,1.1-2.7,1.8-4.7,2.2v6.2h-2.9v-6.2c-2,0-3.9-0.9-5.6-2.6
	c-1.7-1.8-2.6-4-2.6-6.8c0-2.5,0.7-4.6,2.1-6.2C212.9,335.6,214.5,334.9,216.3,334.9 M220.5,350.1c1.4-0.2,2.5-1,3.5-2.3
	c1-1.3,1.5-3,1.5-5c0-1.9-0.4-3.3-1.1-4.2c-0.7-0.9-1.5-1.3-2.3-1.3c-0.6,0-1,0.2-1.2,0.6c-0.3,0.4-0.4,1.3-0.4,2.6V350.1z"/>
<g>
	<path class="st24" d="M44.9,276.5c0,0,11.4-91.5,91.3-152.9c0,0-5.3,81.1,27.2,107.4C143.8,256,130,274.8,130,274.8
		s-23.1-18.2-32.9-60.9C83,235,44.9,276.5,44.9,276.5"/>
	<path class="st24" d="M218.4,126c25.9,0,40.2,27.7,28.9,59.2c-9.5,26.4-10.3,50.8,9.9,60.7c20.2,9.9,35.6-9.9,35.6-9.9
		s-8.9,32.7-45.9,32.7c-36.6,0-84.3-40.4-69.7-104.7C184.4,136.3,201.3,126,218.4,126"/>
</g>
<g>
	<path class="st24" d="M318.4,214.2h-14.1V179h14.1c1.3,0,2.7,0.1,4.2,0.4c1.4,0.3,2.8,0.8,3.9,1.5c1.2,0.7,2.2,1.7,2.9,2.8
		c0.8,1.2,1.1,2.7,1.1,4.6c0,2-0.6,3.7-1.7,5c-0.8,1-1.9,1.8-3.1,2.4c0.6,0.2,1.1,0.4,1.6,0.6c0.9,0.5,1.7,1.1,2.4,1.8
		c0.7,0.7,1.2,1.6,1.6,2.5c0.4,1,0.6,2,0.6,3.2c0,1.9-0.4,3.6-1.2,4.9c-0.8,1.3-1.8,2.4-3.1,3.2c-1.3,0.8-2.7,1.4-4.3,1.7
		C321.7,214,320.1,214.2,318.4,214.2 M313.2,206.6h4.2c0.6,0,1.3-0.1,1.9-0.2c0.6-0.1,1.2-0.3,1.8-0.6c0.5-0.3,0.9-0.6,1.2-1.1
		c0.3-0.5,0.5-1.1,0.5-1.8c0-1.2-0.4-2.1-1.4-2.6c-1-0.5-2.4-0.8-4.1-0.8h-4.2V206.6z M313.2,192.7h4c1.4,0,2.6-0.3,3.3-0.9
		c0.7-0.5,1.1-1.3,1.1-2.4c0-1-0.4-1.7-1.1-2.2c-0.8-0.5-2.1-0.7-3.7-0.7h-3.6V192.7z"/>
	<path class="st24" d="M354,215.1c-2.7,0-5.3-0.5-7.6-1.3c-2.3-0.9-4.4-2.2-6.1-3.8c-1.7-1.6-3-3.6-4-5.9c-1-2.3-1.4-4.8-1.4-7.6
		c0-2.8,0.5-5.4,1.4-7.6c1-2.3,2.3-4.2,4-5.8c1.7-1.6,3.7-2.8,6.1-3.7c2.3-0.9,4.9-1.3,7.6-1.3c2.7,0,5.3,0.4,7.6,1.3
		c2.3,0.9,4.4,2.1,6.1,3.7c1.7,1.6,3,3.5,4,5.8c1,2.3,1.4,4.8,1.4,7.6c0,2.8-0.5,5.3-1.4,7.6c-1,2.3-2.3,4.3-4,5.9
		c-1.7,1.6-3.8,2.9-6.1,3.8C359.3,214.7,356.7,215.1,354,215.1 M354,186.5c-1.4,0-2.7,0.3-3.8,0.8c-1.1,0.5-2.1,1.2-3,2.1
		c-0.8,0.9-1.5,1.9-1.9,3.2c-0.5,1.2-0.7,2.6-0.7,4c0,1.5,0.2,2.9,0.7,4.1c0.5,1.2,1.1,2.3,1.9,3.2c0.8,0.9,1.8,1.6,2.9,2.1
		c2.3,1,5.3,1,7.6,0c1.1-0.5,2.1-1.2,3-2.1c0.8-0.9,1.5-2,1.9-3.2c0.5-1.2,0.7-2.6,0.7-4.1c0-1.4-0.2-2.8-0.7-4
		c-0.5-1.2-1.1-2.3-1.9-3.2c-0.8-0.9-1.8-1.6-3-2.1C356.7,186.7,355.4,186.5,354,186.5"/>
	<path class="st24" d="M407,214.2h-10.7l-7.4-13.6h-2.1v13.6h-9V179h13.5c1.7,0,3.3,0.2,4.9,0.5c1.6,0.3,3.1,0.9,4.4,1.8
		c1.3,0.8,2.3,2,3.1,3.4c0.8,1.4,1.2,3.1,1.2,5.2c0,2.4-0.7,4.5-2,6.1c-1.2,1.5-2.8,2.6-4.9,3.4L407,214.2z M386.6,193.7h3.5
		c0.7,0,1.3-0.1,2-0.2c0.7-0.1,1.3-0.3,1.8-0.6c0.5-0.3,0.9-0.6,1.3-1.1c0.3-0.5,0.5-1.1,0.5-1.9c0-0.7-0.1-1.3-0.4-1.7
		c-0.3-0.4-0.7-0.8-1.1-1c-0.5-0.2-1-0.4-1.7-0.5c-0.6-0.1-1.3-0.1-1.9-0.1h-4V193.7z"/>
	<path class="st24" d="M423.1,214.2h-13.2V179h12.9c2.4,0,4.9,0.3,7.3,0.9c2.4,0.6,4.6,1.5,6.5,2.9c1.9,1.3,3.4,3.2,4.6,5.4
		c1.2,2.3,1.7,5.1,1.7,8.3c0,3.1-0.6,5.7-1.7,8c-1.1,2.2-2.7,4.1-4.5,5.5c-1.9,1.4-4,2.5-6.3,3.2
		C427.8,213.9,425.4,214.2,423.1,214.2 M418.8,206.1h3.5c1.4,0,2.8-0.2,4.2-0.5c1.3-0.3,2.5-0.9,3.5-1.6c1-0.7,1.8-1.7,2.4-2.9
		c0.6-1.2,0.9-2.8,0.9-4.6c0-1.9-0.3-3.4-0.9-4.6c-0.6-1.2-1.4-2.2-2.4-2.9c-1-0.7-2.1-1.2-3.4-1.5c-1.3-0.3-2.7-0.5-4-0.5h-3.7
		V206.1z"/>
	<polygon class="st24" points="472.1,214.2 447.3,214.2 447.3,179 471.3,179 471.3,186.9 456.2,186.9 456.2,192.5 470.4,192.5 
		470.4,200 456.2,200 456.2,206.2 472.1,206.2 	"/>
	<path class="st24" d="M510.3,214.2h-10.2l-2.7-6.7h-12.7l-2.5,6.7h-10L487,179h8.6l0.1,0.3L510.3,214.2z M487.5,199.9h7.3l-3.6-10
		L487.5,199.9z"/>
	<path class="st24" d="M525.9,215.1c-2.3,0-4.4-0.4-6.3-1c-1.9-0.7-3.5-1.7-4.8-2.9c-1.3-1.3-2.3-2.8-3-4.5c-0.7-1.7-1-3.7-1-5.8
		V179h9.1v21.1c0,0.9,0.1,1.7,0.3,2.5c0.2,0.8,0.6,1.5,1,2.1c0.5,0.6,1.1,1.1,1.8,1.4c0.8,0.4,1.7,0.5,2.8,0.5c1.1,0,2-0.2,2.8-0.5
		c0.8-0.4,1.4-0.8,1.9-1.4c0.5-0.6,0.8-1.3,1-2.1c0.2-0.8,0.3-1.7,0.3-2.5V179h9.2v21.8c0,2.1-0.4,4.1-1.1,5.8
		c-0.7,1.8-1.8,3.3-3.1,4.5c-1.3,1.2-3,2.2-4.8,2.9C530.3,214.8,528.2,215.1,525.9,215.1"/>
	<polygon class="st24" points="579.1,214.2 567.8,214.2 560.5,202.5 553.6,214.2 542.6,214.2 554.9,195.6 543.5,179 554.6,179 
		560.8,189.2 566.8,179 577.6,179 566.4,195.6 	"/>
	<polygon class="st24" points="344.4,264.4 335.4,264.4 335.6,241.8 327.3,264.4 320.8,264.4 312.8,241.9 313,264.4 304.3,264.4 
		304.3,229.2 316.8,229.2 324.4,250.5 331.7,229.2 344.4,229.2 	"/>
	<path class="st24" d="M368,265.3c-2.7,0-5.3-0.4-7.6-1.3c-2.3-0.9-4.4-2.2-6.1-3.8c-1.7-1.6-3-3.6-4-5.9c-1-2.3-1.4-4.8-1.4-7.6
		c0-2.8,0.5-5.4,1.4-7.6c1-2.3,2.3-4.2,4-5.8c1.7-1.6,3.7-2.8,6.1-3.7c2.3-0.9,4.9-1.3,7.6-1.3c2.7,0,5.3,0.4,7.6,1.3
		c2.3,0.9,4.4,2.1,6.1,3.7c1.7,1.6,3.1,3.5,4,5.8c1,2.3,1.4,4.8,1.4,7.6c0,2.8-0.5,5.3-1.4,7.6c-1,2.3-2.3,4.3-4,5.9
		c-1.7,1.6-3.7,2.9-6.1,3.8C373.3,264.9,370.8,265.3,368,265.3 M368,236.6c-1.4,0-2.7,0.3-3.8,0.8c-1.1,0.5-2.1,1.2-3,2.1
		c-0.8,0.9-1.5,1.9-1.9,3.2c-0.4,1.2-0.7,2.6-0.7,4c0,1.5,0.2,2.9,0.7,4.1c0.5,1.2,1.1,2.3,1.9,3.2c0.8,0.9,1.8,1.6,2.9,2.1
		c2.3,1,5.3,1,7.6,0c1.1-0.5,2.1-1.2,3-2.1c0.8-0.9,1.5-2,1.9-3.2c0.5-1.3,0.7-2.6,0.7-4.1c0-1.4-0.2-2.8-0.7-4
		c-0.5-1.2-1.1-2.3-1.9-3.2c-0.8-0.9-1.8-1.6-3-2.1C370.7,236.9,369.4,236.6,368,236.6"/>
	<polygon class="st24" points="423.8,264.4 413.8,264.4 400.5,242.9 400.7,264.4 391.8,264.4 391.8,229.2 401.9,229.2 415.1,250.7 
		414.9,229.2 423.8,229.2 	"/>
	<polygon class="st24" points="445.6,264.4 436.4,264.4 436.4,237.2 426.7,237.2 426.7,229.2 455.3,229.2 455.3,237.2 445.6,237.2 	
		"/>
	<path class="st24" d="M488.8,264.4h-10.2l-2.7-6.7h-12.7l-2.5,6.7h-10l14.8-35.2h8.6l0.1,0.3L488.8,264.4z M466,250.1h7.3l-3.6-10
		L466,250.1z"/>
	<rect x="490.6" y="229.2" class="st24" width="9.2" height="35.2"/>
	<path class="st24" d="M523.7,265.3c-2.8,0-5.4-0.4-7.7-1.3c-2.4-0.9-4.4-2.2-6.1-3.8c-1.7-1.6-3-3.6-4-5.8c-1-2.2-1.4-4.8-1.4-7.6
		c0-2.8,0.5-5.4,1.5-7.6c1-2.3,2.3-4.2,4.1-5.8c1.7-1.6,3.8-2.8,6.1-3.7c2.3-0.9,4.8-1.3,7.5-1.3c2.8,0,5.3,0.4,7.7,1.3
		c2.4,0.8,4.3,2,5.8,3.4l0.3,0.3l-5.9,6.7l-0.3-0.4c-0.8-0.9-1.8-1.6-3-2.2c-1.3-0.6-2.7-0.9-4.3-0.9c-1.4,0-2.7,0.3-3.8,0.8
		c-1.2,0.5-2.2,1.2-3.1,2.1c-0.9,0.9-1.5,2-2,3.2c-0.5,1.2-0.7,2.6-0.7,4.1c0,1.5,0.2,2.9,0.7,4.2c0.4,1.3,1.1,2.4,1.9,3.3
		c0.8,0.9,1.9,1.6,3.1,2.1c1.2,0.5,2.7,0.8,4.3,0.8c0.9,0,1.8-0.1,2.7-0.2c0.7-0.1,1.4-0.3,2-0.6v-5.5h-6.5v-7.6h15v18.9l-0.2,0.1
		c-1.7,0.9-3.7,1.6-6,2.2C528.8,265,526.3,265.3,523.7,265.3"/>
	<polygon class="st24" points="575.3,264.4 565.2,264.4 552,242.9 552.2,264.4 543.2,264.4 543.2,229.2 553.4,229.2 566.6,250.7 
		566.4,229.2 575.3,229.2 	"/>
	<polygon class="st24" points="606.3,264.4 581.5,264.4 581.5,229.2 605.4,229.2 605.4,237.1 590.4,237.1 590.4,242.7 604.6,242.7 
		604.6,250.2 590.4,250.2 590.4,256.4 606.3,256.4 	"/>
	<path class="st24" d="M334.6,164.9c-2.3,0-4.4-0.4-6.3-1c-1.9-0.7-3.5-1.7-4.8-2.9c-1.3-1.3-2.3-2.8-3-4.5
		c-0.7-1.7-1.1-3.7-1.1-5.8l0-21.8l9.1,0l0,21.1c0,0.9,0.1,1.7,0.3,2.5c0.2,0.8,0.6,1.5,1,2.1c0.5,0.6,1.1,1.1,1.8,1.4
		c0.8,0.4,1.7,0.5,2.8,0.5c1.1,0,2-0.2,2.8-0.5c0.8-0.4,1.4-0.8,1.8-1.4c0.5-0.6,0.8-1.3,1-2.1c0.2-0.8,0.3-1.7,0.3-2.5l0-21.1
		l9.2,0l0,21.8c0,2.1-0.4,4.1-1.1,5.8c-0.7,1.8-1.8,3.3-3.1,4.5c-1.3,1.2-3,2.2-4.8,2.9C338.9,164.6,336.8,164.9,334.6,164.9"/>
	<polygon class="st24" points="371.5,164 362.3,164 362.3,136.8 352.6,136.8 352.6,128.8 381.2,128.8 381.2,136.8 371.5,136.8 	"/>
	
		<rect x="305.2" y="128.8" transform="matrix(1 -1.321004e-03 1.321004e-03 1 -0.1931 0.4094)" class="st24" width="9.2" height="35.2"/>
</g>
</svg>
